<?xml version="1.0" encoding="utf-8"?>
<svg viewBox="-6 -167.655 512 512" xmlns="http://www.w3.org/2000/svg">
  <defs>
    <linearGradient gradientUnits="userSpaceOnUse" x1="19.495" y1="-124.348" x2="19.495" y2="176.709" id="gradient-0" gradientTransform="matrix(-0.854965, -0.518686, 0.620307, -1.022463, 30.683164, 44.383111)">
      <stop offset="0" style="stop-color: rgba(253, 0, 0, 1)"/>
      <stop offset="1" style="stop-color: rgb(122, 4, 4);"/>
    </linearGradient>
    <style>.cls-1{fill:#fd0000;}.cls-2{fill:#fef9f9;}</style>
  </defs>
  <rect x="-6" y="-167.655" width="512" height="512" style="stroke: rgb(0, 0, 0); fill: rgb(255, 255, 255); stroke-width: 0px;"/>
  <g id="Layer_1-2" data-name="Layer 1-2" transform="matrix(0.860696, 0, 0, 0.860696, 75.171364, 58.124329)" style="">
    <path class="cls-1" d="M -47.254 57.42 C -52.775 54.149 -57.683 51.286 -62.795 48.423 C -77.331 40.039 -88.356 27.769 -91.236 11.205 C -95.735 -15.395 -91.645 -37.889 -63.409 -54.862 C -27.827 -76.129 8.163 -96.374 44.154 -117.027 C 79.343 -137.084 125.762 -113.755 131.062 -73.471 C 134.721 -48.953 122.626 -24.771 100.814 -12.993 C 96.111 -10.334 91.203 -7.471 85.887 -4.199 C 91.203 -1.132 95.702 1.748 100.405 4.406 C 137.895 25.469 142.735 75.16 109.812 102.562 C 103.268 107.878 95.498 111.764 88.136 116.058 C 57.258 134.07 26.158 152.065 -4.924 169.652 C -45.213 191.119 -93.632 160.923 -92.079 115.298 C -91.417 95.829 -81.235 77.927 -64.84 67.406 C -58.91 64.373 -53.389 61.101 -47.254 57.42 Z M -9.423 71.53 L 67.891 26.747 L -9.423 -17.849 L -9.423 71.53 Z" style="fill: url(#gradient-0);"/>
    <path d="M480.86,562.13V434.55h19.81v46.8c.6-1,1.44-2.28,2.4-3.6,6.6-8.88,21-10.44,28-2.64a21.74,21.74,0,0,1,4.32,8.64,36.16,36.16,0,0,1,1.2,9.49c.12,22.32,0,44.64,0,67a11.09,11.09,0,0,1-.12,1.93H516.15V495.64a24.9,24.9,0,0,0-.84-6.6c-1-3.36-3.6-4.81-7.08-4.21a8.4,8.4,0,0,0-7.2,8.77v68.53Z" transform="translate(-250 -411.65)"/>
    <path d="M 167 115.67 L 185.6 115.67 C 185.6 118.43 185.48 121.31 185.6 124.07 C 185.716 126.264 186.078 128.437 186.68 130.55 C 188 135.23 191 137.27 195.56 137.03 C 200.12 136.79 202.88 134.27 203.84 129.71 C 205.84 118.91 202.76 109.55 194.96 101.87 C 189.68 96.71 184.04 91.87 178.64 86.87 C 165.44 74.63 163.52 59.26 167.24 42.7 C 169.16 34.18 175.16 28.9 183.56 26.62 C 190.297 24.802 197.368 24.597 204.2 26.02 C 213.08 27.94 218.72 33.1 221.12 42.02 C 222.92 48.74 222.8 55.46 221.96 62.42 L 203.84 63.62 C 203.48 58.82 203.24 54.14 202.84 49.62 C 202.738 48.73 202.578 47.848 202.36 46.98 C 201.16 42.54 198.76 40.62 194.44 40.74 C 190.12 40.86 187 42.74 186.04 47.1 C 183.88 56.46 185.44 64.86 192.52 71.82 C 198.64 77.82 204.76 83.71 211 89.59 C 225.22 102.95 226.9 119.35 221.74 137.15 C 219.58 144.47 214.3 148.91 206.86 150.84 C 199.678 152.784 192.137 152.99 184.86 151.44 C 174.18 149.28 168.42 143.27 166.74 132.44 C 165.931 126.872 166.019 121.21 167 115.67 Z"/>
    <path d="M 544.35 517.6 C 545.07 509.2 545.43 500.92 546.63 492.6 C 547.365 488.727 548.716 484.996 550.63 481.55 C 553.39 476.03 558.19 472.79 564.2 471.35 C 569.778 470.037 575.571 469.915 581.2 470.99 C 591.52 472.91 597.04 479.87 599.08 489.6 C 600.285 495.69 600.955 501.873 601.08 508.08 C 601.32 519.24 601.8 530.4 599.76 541.44 C 599.21 544.593 598.283 547.668 597 550.6 C 594.626 556.515 589.523 560.906 583.32 562.37 C 576.477 564.172 569.283 564.172 562.44 562.37 C 552.44 559.72 548.03 552.04 546.59 542.8 C 545.19 534.52 545 526 544.35 517.6 Z M 580.432 517.462 L 580.36 517.36 C 580.36 510.64 580.6 503.92 580.24 497.2 C 580.029 494.124 579.383 491.094 578.32 488.2 C 576.755 484.043 571.277 483.139 568.459 486.573 C 568.059 487.06 567.742 487.61 567.52 488.2 C 566.51 490.855 565.903 493.646 565.72 496.48 C 565.48 510.28 565.48 524.08 565.72 537.76 C 565.931 540.68 566.578 543.552 567.64 546.28 C 568.395 548.499 570.59 549.896 572.92 549.64 C 575.233 549.849 577.416 548.539 578.32 546.4 C 579.144 544.787 579.672 543.039 579.88 541.24 C 580.36 533.44 580.192 525.502 580.432 517.462 Z" transform="translate(-250 -411.65)"/>
    <path d="M698.57,534.64h17a69.26,69.26,0,0,0,1.8,10,7.52,7.52,0,0,0,8.4,5.4c5.88-.84,9-6.36,6-11.76a31.19,31.19,0,0,0-7.2-8.16c-5.28-4.56-10.92-8.64-16.21-13.2-9.72-8.76-11.52-19.8-8.4-31.93,1.8-7.08,6.84-11.28,13.81-13.08a41,41,0,0,1,20.16-.36c8.52,2,13.32,7.56,14.76,17.29.6,4.08.6,8.28.84,12.84l-8.88.48-8.28.36c-.48-4.08-.72-7.92-1.44-11.76-.84-4.2-3.24-6-7.32-5.77-5,.24-7.44,3.25-7.08,8.29a13.45,13.45,0,0,0,5.28,10.2c5.52,4.44,11.16,8.64,16.68,13.08,5.16,4.2,10,9,10.92,15.84a58.35,58.35,0,0,1,0,15.84c-1.2,7.44-6.24,12.24-13.56,14.53a40.08,40.08,0,0,1-22.56.36c-8.53-2.29-13.81-8.29-14.53-17.17C698.33,542.32,698.57,538.72,698.57,534.64Z" transform="translate(-250 -411.65)"/>
    <path d="M679.73,488.08c0,18-.12,35.64,0,53.28,0,6.6,1.44,7.56,8,6.48,1.32-.24,2.52-.6,4.2-1,.84,4.32,1.68,8.64,2.52,13.08-8.16,3.25-16.2,4.69-24.72,3a9.58,9.58,0,0,1-8-7.69,68.48,68.48,0,0,1-1.68-13.08c-.12-17-.12-34-.12-50.88v-2.88h-7.2V472.35c2,0,4-.12,5.88,0s2.4-.48,2.52-2.28c.6-7.56,1.44-15,2.16-22.56a11.91,11.91,0,0,1,.36-1.8h15v26.64h13.68v15.73Z" transform="translate(-250 -411.65)"/>
    <path d="M648.05,470.67c-.36,7.92-.6,15.61-1,23.17a105.12,105.12,0,0,0-10.69.12,11.33,11.33,0,0,0-5,2.28,6.22,6.22,0,0,0-2.64,5.52c.12,19.2,0,38.4,0,57.6v2.77H609.28v-90h15.48c.6,6.48,1.2,13,1.8,19.33H627a41.31,41.31,0,0,1,1.68-6.61,48.84,48.84,0,0,1,5-9.6C637.12,470.67,642.17,469.47,648.05,470.67Z" transform="translate(-250 -411.65)"/>
    <path d="M 231.737 -47.081 C 232.457 -55.481 232.817 -63.761 234.017 -72.081 C 234.752 -75.954 236.103 -79.685 238.017 -83.131 C 240.777 -88.651 245.577 -91.891 251.587 -93.331 C 257.165 -94.644 262.958 -94.766 268.587 -93.691 C 278.907 -91.771 284.427 -84.811 286.467 -75.081 C 287.672 -68.991 288.342 -62.808 288.467 -56.601 C 288.707 -45.441 289.187 -34.281 287.147 -23.241 C 286.597 -20.088 285.67 -17.013 284.387 -14.081 C 282.013 -8.166 276.91 -3.775 270.707 -2.311 C 263.864 -0.509 256.67 -0.509 249.827 -2.311 C 239.827 -4.961 235.417 -12.641 233.977 -21.881 C 232.577 -30.161 232.387 -38.681 231.737 -47.081 Z M 267.819 -47.219 L 267.747 -47.321 C 267.747 -54.041 267.987 -60.761 267.627 -67.481 C 267.416 -70.557 266.77 -73.587 265.707 -76.481 C 264.142 -80.638 258.664 -81.542 255.846 -78.108 C 255.446 -77.621 255.129 -77.071 254.907 -76.481 C 253.897 -73.826 253.29 -71.035 253.107 -68.201 C 252.867 -54.401 252.867 -40.601 253.107 -26.921 C 253.318 -24.001 253.965 -21.129 255.027 -18.401 C 255.782 -16.182 257.977 -14.785 260.307 -15.041 C 262.62 -14.832 264.803 -16.142 265.707 -18.281 C 266.531 -19.894 267.059 -21.642 267.267 -23.441 C 267.747 -31.241 267.579 -39.179 267.819 -47.219 Z"/>
    <path d="M 165.001 -2.165 L 164.52 -94.187 L 184.931 -93.947 L 184.811 -82.945 C 185.411 -83.945 186.251 -85.225 187.211 -86.545 C 193.811 -95.425 208.211 -96.985 215.211 -89.185 C 217.28 -86.665 218.757 -83.713 219.531 -80.545 C 220.349 -77.449 220.753 -74.258 220.731 -71.055 C 220.851 -48.735 220.731 -26.415 220.731 -4.055 C 220.747 -3.409 220.707 -2.764 220.611 -2.125 L 200.291 -2.125 L 200.291 -68.655 C 200.307 -70.883 200.025 -73.103 199.451 -75.255 C 198.451 -78.615 195.851 -80.065 192.371 -79.465 C 188.061 -78.849 184.935 -75.043 185.171 -70.695 L 185.171 -2.165 L 165.001 -2.165 Z"/>
  </g>
</svg>