<?xml version="1.0" encoding="utf-8"?>
<svg viewBox="0 0 512 512" xmlns="http://www.w3.org/2000/svg">
  <g id="Layer_1-2" data-name="Layer 1-2" transform="matrix(0.91362, 0, 0, 0.965088, 2.971596, 171.156067)" style="">
    <path class="cls-1" d="M 290.68 47.356 C 283.927 43.353 277.924 39.851 271.671 36.351 C 253.892 26.097 240.407 11.089 236.884 -9.17 C 231.383 -41.704 236.385 -69.216 270.921 -89.977 C 314.438 -115.988 358.458 -140.748 402.478 -166.007 C 445.517 -190.54 502.291 -162.006 508.772 -112.735 C 513.25 -82.748 498.456 -53.17 471.778 -38.765 C 466.025 -35.514 460.023 -32.012 453.52 -28.011 C 460.023 -24.258 465.525 -20.736 471.279 -17.484 C 517.132 8.277 523.052 69.052 482.782 102.567 C 474.78 109.069 465.277 113.82 456.271 119.073 C 418.506 141.104 380.468 163.114 342.452 184.622 C 293.176 210.877 233.955 173.948 235.854 118.146 C 236.663 94.332 249.116 72.436 269.168 59.569 C 276.425 55.861 283.175 51.857 290.68 47.356 Z M 336.95 64.611 L 431.511 9.838 L 336.95 -44.704 L 336.95 64.611 Z" style="fill: rgb(253, 0, 0);"/>
    <path d="M 106.786 349.009 L 106.786 136.047 L 139.852 136.047 L 139.852 214.168 C 140.854 212.497 142.256 210.361 143.859 208.158 C 154.876 193.336 178.913 190.732 190.597 203.752 C 194.053 207.956 196.516 212.886 197.807 218.173 C 199.174 223.342 199.847 228.668 199.811 234.014 C 200.013 271.272 199.811 308.531 199.811 345.855 C 199.838 346.93 199.771 348.009 199.612 349.075 L 165.693 349.075 L 165.693 238.02 C 165.718 234.302 165.248 230.595 164.291 227.005 C 162.62 221.395 158.281 218.975 152.471 219.976 C 145.278 221.002 140.059 227.357 140.453 234.616 L 140.453 349.009 L 106.786 349.009 Z" style="fill: rgb(255, 255, 255);"/>
    <path d="M 0.188 290.903 L 31.236 290.903 C 31.236 295.51 31.034 300.317 31.236 304.925 C 31.427 308.584 32.033 312.214 33.038 315.74 C 35.241 323.551 40.249 326.958 47.861 326.558 C 55.472 326.157 60.079 321.949 61.681 314.339 C 65.021 296.311 59.88 280.686 46.859 267.866 C 38.045 259.254 28.631 251.174 19.617 242.829 C -2.417 222.398 -5.623 196.741 0.589 169.098 C 3.793 154.876 13.807 146.063 27.829 142.257 C 39.077 139.222 50.878 138.878 62.282 141.254 C 77.105 144.459 86.52 153.073 90.527 167.964 C 93.53 179.18 93.331 190.399 91.928 202.016 L 61.681 204.018 C 61.081 196.006 60.68 188.194 60.014 180.648 C 59.841 179.164 59.576 177.69 59.211 176.244 C 57.209 168.83 53.202 165.626 45.991 165.826 C 38.78 166.026 33.571 169.165 31.97 176.442 C 28.364 192.066 30.968 206.089 42.785 217.705 C 53 227.723 63.217 237.554 73.633 247.369 C 97.372 269.67 100.174 297.044 91.562 326.757 C 87.956 338.977 79.143 346.387 66.723 349.61 C 54.735 352.854 42.146 353.196 29.999 350.611 C 12.173 347.005 2.557 336.972 -0.247 318.896 C -1.597 309.601 -1.451 300.15 0.188 290.903 Z" style="fill: rgb(255, 255, 255);"/>
    <path d="M 212.765 274.677 C 213.966 260.656 214.568 246.835 216.57 232.946 C 217.797 226.479 220.051 220.254 223.248 214.501 C 227.855 205.288 235.868 199.879 245.899 197.476 C 255.21 195.282 264.879 195.078 274.275 196.875 C 291.503 200.079 300.716 211.696 304.122 227.94 C 306.133 238.103 307.25 248.425 307.461 258.786 C 307.86 277.415 308.663 296.043 305.257 314.472 C 304.338 319.734 302.792 324.868 300.65 329.762 C 296.687 339.636 288.169 346.964 277.814 349.41 C 266.391 352.417 254.385 352.417 242.961 349.41 C 226.269 344.987 218.907 332.165 216.503 316.742 C 214.166 302.92 213.849 288.698 212.765 274.677 Z M 273.35 274.046 L 273.361 274.046 C 273.361 262.828 273.274 251.843 272.672 240.624 C 272.323 235.491 271.243 230.432 269.47 225.602 C 266.856 218.663 257.713 217.154 253.009 222.886 C 252.341 223.698 251.812 224.617 251.442 225.602 C 249.754 230.031 248.742 234.691 248.436 239.423 C 248.035 262.46 248.035 285.493 248.436 308.329 C 248.788 313.205 249.868 317.996 251.642 322.551 C 252.902 326.255 256.565 328.587 260.455 328.16 C 264.315 328.508 267.961 326.322 269.47 322.751 C 270.844 320.06 271.727 317.142 272.073 314.138 C 272.873 301.118 272.949 287.467 273.35 274.046 Z" style="fill: rgb(255, 255, 255);"/>
    <path d="M 470.196 303.12 L 498.572 303.12 C 499.164 308.752 500.168 314.33 501.577 319.813 C 503.292 325.935 509.315 329.807 515.598 328.827 C 525.413 327.426 530.62 318.211 525.615 309.196 C 522.437 303.988 518.367 299.377 513.596 295.578 C 504.782 287.965 495.367 281.154 486.536 273.543 C 470.313 258.92 467.307 240.492 472.514 220.244 C 475.52 208.425 483.933 201.415 495.567 198.409 C 506.559 195.409 518.127 195.204 529.219 197.81 C 543.441 201.147 551.453 210.428 553.857 226.669 C 554.859 233.48 554.859 240.492 555.259 248.103 L 540.437 248.904 L 526.616 249.506 C 525.814 242.694 525.413 236.285 524.21 229.875 C 522.809 222.865 518.804 219.86 511.991 220.244 C 503.645 220.645 499.574 225.667 500.175 234.08 C 500.419 240.789 503.653 247.034 508.989 251.109 C 518.201 258.52 527.618 265.53 536.831 272.941 C 545.444 279.953 553.524 287.965 555.059 299.382 C 556.262 308.155 556.262 317.049 555.059 325.823 C 553.055 338.242 544.642 346.253 532.423 350.077 C 520.187 353.88 507.117 354.087 494.765 350.678 C 480.529 346.855 471.714 336.84 470.512 322.017 C 469.794 315.942 470.196 309.932 470.196 303.12 Z" style="fill: rgb(255, 255, 255);"/>
    <path d="M 438.747 225.403 C 438.747 255.448 438.546 284.893 438.747 314.339 C 438.747 325.356 441.15 326.958 452.1 325.155 C 454.305 324.754 456.306 324.154 459.111 323.487 C 460.513 330.697 461.916 337.908 463.317 345.318 C 449.698 350.745 436.276 353.15 422.054 350.328 C 415.325 349.325 409.968 344.176 408.7 337.491 C 407.064 330.32 406.125 323.008 405.895 315.657 C 405.695 287.28 405.695 258.903 405.695 230.726 L 405.695 225.918 L 393.677 225.918 L 393.677 199.143 C 397.016 199.143 400.354 198.944 403.492 199.143 C 406.63 199.344 407.498 198.342 407.698 195.338 C 408.7 182.718 410.102 170.299 411.304 157.681 C 411.426 156.664 411.628 155.659 411.905 154.674 L 436.943 154.674 L 436.943 199.143 L 459.779 199.143 L 459.779 225.403 L 438.747 225.403 Z" style="fill: rgb(255, 255, 255);"/>
    <path d="M 385.864 196.339 C 385.265 209.56 384.864 222.398 384.195 235.016 C 378.247 234.779 372.291 234.846 366.352 235.217 C 363.3 235.781 360.432 237.087 358.005 239.021 C 355.023 241.109 353.349 244.603 353.599 248.237 C 353.799 280.285 353.599 312.335 353.599 344.383 L 353.599 349.009 L 321.148 349.009 L 321.148 198.777 L 346.987 198.777 C 347.99 209.595 348.991 220.477 349.992 231.044 L 350.727 231.044 C 351.357 227.293 352.295 223.604 353.532 220.009 C 355.713 214.374 358.51 208.999 361.879 203.985 C 367.619 196.339 376.05 194.338 385.864 196.339 Z" style="fill: rgb(255, 255, 255);"/>
    <path class="cls-2" d="M 336.34 65.739 L 336.34 -46.354 L 433.299 9.575 L 336.34 65.739 Z" style="fill: rgb(254, 249, 249);"/>
    <path d="M 129.461 28.05 C 130.62 15.26 131.196 2.651 133.127 -10.016 C 134.307 -15.91 136.482 -21.592 139.559 -26.84 C 143.999 -35.244 151.718 -40.176 161.386 -42.369 C 170.359 -44.369 179.675 -44.556 188.728 -42.917 C 205.327 -39.994 214.203 -29.396 217.486 -14.582 C 219.425 -5.308 220.499 4.103 220.701 13.556 C 221.086 30.547 221.858 47.537 218.579 64.348 C 217.693 69.15 216.201 73.834 214.142 78.293 C 210.322 87.299 202.114 93.985 192.138 96.216 C 181.131 98.958 169.56 98.958 158.556 96.216 C 142.471 92.182 135.38 80.488 133.064 66.419 C 130.811 53.811 130.504 40.84 129.461 28.05 Z M 187.492 27.841 L 187.376 27.685 C 187.376 17.453 187.762 7.22 187.183 -3.012 C 186.845 -7.693 185.805 -12.307 184.095 -16.714 C 181.579 -23.041 172.768 -24.421 168.235 -19.191 C 167.591 -18.447 167.084 -17.611 166.725 -16.714 C 165.101 -12.672 164.124 -8.419 163.831 -4.106 C 163.443 16.906 163.443 37.915 163.831 58.747 C 164.168 63.192 165.209 67.564 166.922 71.717 C 168.133 75.097 171.663 77.223 175.41 76.831 C 179.133 77.151 182.642 75.158 184.095 71.903 C 185.421 69.443 186.269 66.784 186.603 64.044 C 187.376 52.169 187.106 40.082 187.492 27.841 Z" style="fill: rgb(255, 255, 255);"/>
    <path d="M 22.127 96.438 L 21.351 -43.671 L 54.179 -43.306 L 53.986 -26.556 C 54.953 -28.077 56.302 -30.029 57.845 -32.037 C 68.461 -45.558 91.621 -47.935 102.881 -36.054 C 106.206 -32.218 108.583 -27.725 109.828 -22.902 C 111.147 -18.188 111.795 -13.329 111.759 -8.453 C 111.95 25.533 111.759 59.517 111.759 93.56 C 111.782 94.547 111.719 95.524 111.566 96.499 L 78.886 96.499 L 78.886 -4.799 C 78.91 -8.19 78.458 -11.571 77.534 -14.847 C 75.926 -19.962 71.743 -22.171 66.147 -21.257 C 59.212 -20.32 54.187 -14.523 54.566 -7.901 L 54.566 96.438 L 22.127 96.438 Z" style="fill: rgb(255, 255, 255);"/>
  </g>
</svg>